<svg xmlns="http://www.w3.org/2000/svg" xmlns:xlink="http://www.w3.org/1999/xlink" width="320" height="465" fill="none" xmlns:v="https://vecta.io/nano"><style><![CDATA[.B{fill:#f0b90b}.C{stroke-width:4.331}.D{stroke:#f8d33a}.E{fill:#ff7e0d}.F{fill:#c4c4c4}.G{fill:#e8a37d}]]></style><g clip-path="url(#O)"><path fill="#fff" d="M0 0h320v465H0z"/><path fill="url(#E)" d="M0 0h320v233H0z"/><path d="M40.587 16.5h18.407v18.407H40.587z" class="B"/><path d="M18.046 57.044l31.5-31.5" class="C D"/><g class="B"><path d="M126.125 46.808h19.5v19.5h-19.5z"/><circle cx="156.444" cy="77.125" r="7.579"/><circle r="7.579" transform="matrix(0 -1 -1 0 294.708 106.58)"/></g><g class="C D"><path d="M135.87-3v59.553m-137.512 0h127.767m30.32 20.572L135.87 56.553m158.838 50.027l22.738 22.74"/></g><circle cx="18.93" cy="56.553" r="7.579" class="B"/><path d="M77.4 115.022l-58.47-58.47" class="C D"/><g class="B"><circle cx="77.401" cy="115.022" r="9.745"/><circle r="9.745" transform="matrix(0 -1 -1 0 280.632 166.132)"/></g><path d="M77.4 115.022l58.47-58.47" class="C D"/><g class="B"><path d="M34.993 182.333l-6.497-6.496L22 182.333l6.497 6.497 6.497-6.497zm146.354-157.18l-5.414-5.414-5.413 5.414 5.413 5.414 5.414-5.414z"/></g><path fill="#1773eb" d="M0 233h320v232H0z"/><path d="M197.8 226.727h34.512c15.434 0 23.164-18.66 12.25-29.574l-28.895-28.896" stroke="#474d57" stroke-width="34.649"/><path d="M170.412 149.434c10.994 10.994 10.994 28.82 0 39.813s-28.82 10.994-39.813 0l39.813-39.813z" class="G"/><path d="M170.412 149.434c-10.994-10.994-28.82-10.994-39.813 0s-10.994 28.82 0 39.813l39.813-39.813z" fill="#e56700"/><path d="M212.224 161.76h-30.318v-30.318h30.318z" class="G"/><path d="M150.36 225.204l-15.834-15.8H109.36v95.284h88.788v-95.284h-31.955l-15.834 15.8z" fill="url(#F)"/><g stroke="#2b2f36" class="C"><path d="M210.25 108.705V79.47m21.173 32.965L252.48 91.38m-17.325 42.228H264.4"/></g><path d="M77.07 241.886c0-17.94 14.543-32.483 32.484-32.483v66.05H77.07v-33.566z" fill="#474d57"/><path d="M123.628 261.376H175.6v51.973h-51.973z" class="E"/><path fill="#fff" d="M175.602 261.376h51.973v51.973h-51.973z"/><path fill="#caced3" d="M175.602 287.363h51.973v25.987h-51.973z"/><path fill="#fff" d="M71.656 261.376h51.973v51.973H71.656z"/><path fill="#caced3" d="M71.656 287.363h51.973v25.987H71.656z"/><g class="E"><path d="M279.548 287.363c0-14.352-11.634-25.987-25.986-25.987h-25.987v51.973h25.987a25.99 25.99 0 0 0 25.986-25.986zm-259.865 0c0-14.352 11.635-25.987 25.987-25.987h25.987v51.973H45.67c-14.352 0-25.987-11.634-25.987-25.986z"/></g><g fill="#e56700"><path d="M123.628 287.363H175.6v25.987h-51.973zm155.92 0a25.99 25.99 0 0 1-25.986 25.986h-25.987v-25.986h51.973zm-259.865 0c0 14.352 11.635 25.986 25.987 25.986h25.987v-25.986H19.683z"/></g><path d="M149.616 280.866c-28.106 27.43-73.675 27.43-101.78 0v-19.5m101.78 19.5c28.106 27.43 73.675 27.43 101.78 0v-19.5m-101.78 19.5v-19.5" stroke="#fff" class="C"/><path d="M59.745 276.534v-30.318h30.318v30.318z" class="G"/><path d="M63.96 311.616l-36.33 36.33L7.71 328.023l36.33-36.33 19.922 19.922z" fill="url(#G)"/><path d="M52.174 372.356l-29.23-29.1 36.33-36.328 29.23 29.098-36.33 36.33z" class="B"/><path d="M52.042 372.902l-24.445-24.86h48.89l-24.445 24.86z" fill="url(#H)"/><path d="M298.5 248.783l18.5 18.5 10.146-10.145-18.5-18.5-10.146 10.145z" fill="url(#I)"/><path d="M304.5 279.716l14.886-14.82-18.5-18.5L286 261.215l18.5 18.5z" class="B"/><path d="M304.568 279.994l12.45-12.66h-24.9l12.45 12.66z" fill="url(#J)"/><path d="M327.2 139.063v-19.5h-19.5v19.5z" class="B"/><path d="M280.632 166.132l36.814-36.814" class="C D"/><mask id="A" mask-type="alpha" maskUnits="userSpaceOnUse" x="182" y="279" width="111" height="89"><path d="M182.086 279.783h110.467v87.402H182.086z" class="F"/></mask><g mask="url(#A)"><mask id="B" mask-type="alpha" maskUnits="userSpaceOnUse" x="214" y="279" width="79" height="176"><path fill-rule="evenodd" d="M292.553 367.16c0-48.257-17.43-87.377-38.934-87.377v-.001h-30.786v33.878c-5.11 14.783-8.15 33.345-8.15 53.5s3.04 38.717 8.15 53.5v33.876l30.786.001c21.503 0 38.934-39.12 38.934-87.377z" class="F"/></mask><g mask="url(#B)"><path transform="rotate(270 182.088 454.587)" d="M182.088 454.587h174.804v110.466H182.088z" class="E"/><g style="mix-blend-mode:multiply"><path transform="matrix(0 1 1 0 219.211 279.783)" fill="#717171" d="M0 0h22.637v73.343H0z"/><path transform="matrix(0 1 1 0 219.298 302.294)" fill="#939393" d="M0 0h35.093v73.257H0z"/><path transform="matrix(0 1 1 0 219.298 337.387)" fill="#b4b4b4" d="M0 0h59.592v73.257H0z"/></g></g><mask id="C" mask-type="alpha" maskUnits="userSpaceOnUse" x="182" y="279" width="84" height="176"><ellipse cx="223.738" cy="367.16" rx="87.377" ry="41.651" transform="rotate(270 223.738 367.16)" class="F"/></mask><g mask="url(#C)" class="E"><path transform="rotate(270 182.088 454.538)" d="M182.088 454.538h174.755v83.303H182.088z"/></g><g opacity=".7"><g style="mix-blend-mode:soft-light"><ellipse cx="223.62" cy="367.293" rx="81.341" ry="38.701" transform="rotate(270 223.62 367.293)" fill="url(#K)"/></g><g style="mix-blend-mode:multiply" opacity=".7"><ellipse cx="223.62" cy="367.293" rx="81.341" ry="38.701" transform="rotate(270 223.62 367.293)" fill="url(#L)"/></g></g><g opacity=".9" class="E"><path d="M232.66 294.52c19.34 9.92 31.06 50.486 26.264 90.39s-24.4 64.264-43.684 54.344c-19.338-9.92-31.058-50.376-26.264-90.39 4.848-40.014 24.4-64.265 43.684-54.344z"/></g></g><mask id="D" mask-type="alpha" maskUnits="userSpaceOnUse" x="182" y="366" width="111" height="89"><path d="M182.087 366.707h110.467v87.402H182.087z" class="F"/></mask><g mask="url(#D)"><use xlink:href="#P" fill="url(#M)"/><use xlink:href="#P" fill="url(#M)"/><path d="M223.36 279.304h31.562c20.784 0 37.632 38.86 37.632 86.796s-16.848 86.795-37.632 86.795H223.36c22.795 0 41.274-38.86 41.274-86.795s-18.48-86.796-41.274-86.796z" fill="url(#N)"/></g></g><defs><linearGradient id="E" x1="160" y1="-142.059" x2="160" y2="233" xlink:href="#Q"><stop stop-color="#f0b90b"/><stop offset="1" stop-color="#f8d33a"/></linearGradient><linearGradient id="F" x1="153.754" y1="209.403" x2="153.754" y2="304.687" xlink:href="#Q"><stop stop-color="#474d57"/><stop offset="1" stop-color="#5e6673"/></linearGradient><linearGradient id="G" x1="17.67" y1="337.984" x2="53.999" y2="301.655" xlink:href="#Q"><stop stop-color="#f0b90b"/><stop offset="1" stop-color="#f8d33a"/></linearGradient><linearGradient id="H" x1="52.042" y1="372.902" x2="52.042" y2="348.042" xlink:href="#Q"><stop stop-color="#1773eb"/><stop offset="1" stop-color="#328dfd"/></linearGradient><linearGradient id="I" x1="322.073" y1="262.212" x2="303.572" y2="243.711" xlink:href="#Q"><stop stop-color="#f0b90b"/><stop offset="1" stop-color="#f8d33a"/></linearGradient><linearGradient id="J" x1="304.568" y1="279.994" x2="304.568" y2="267.334" xlink:href="#Q"><stop stop-color="#1773eb"/><stop offset="1" stop-color="#328dfd"/></linearGradient><linearGradient id="K" x1="283.86" y1="395.835" x2="259.251" y2="348.363" xlink:href="#Q"><stop stop-color="#f5f5f5"/><stop offset="1" stop-color="#f5f5f5" stop-opacity="0"/></linearGradient><linearGradient id="L" x1="155.505" y1="335.357" x2="200.017" y2="432.884" xlink:href="#Q"><stop stop-color="#14151a"/><stop offset=".099" stop-color="#2b2f36"/><stop offset=".525" stop-color="#b4b4b4" stop-opacity=".536"/><stop offset="1" stop-color="#f5f5f5" stop-opacity="0"/></linearGradient><linearGradient id="M" x1="223.36" y1="452.895" x2="223.36" y2="369.134" xlink:href="#Q"><stop offset=".313" stop-color="#1773eb"/><stop offset="1" stop-color="#328dfd"/></linearGradient><linearGradient id="N" x1="257.956" y1="452.895" x2="257.956" y2="335.752" xlink:href="#Q"><stop offset=".24" stop-color="#1773eb"/><stop offset="1" stop-color="#328dfd"/></linearGradient><clipPath id="O"><path fill="#fff" d="M0 0h320v465H0z"/></clipPath><path id="P" d="M223.36 279.304c22.795 0 41.273 38.86 41.273 86.796s-18.478 86.795-41.273 86.795-41.273-38.86-41.273-86.795 18.48-86.796 41.273-86.796z"/><linearGradient id="Q" gradientUnits="userSpaceOnUse"/></defs></svg>